<mxfile host="app.diagrams.net" modified="2022-04-17T03:09:59.865Z" agent="5.0 (Macintosh)" etag="L5j6yydkphopm1BRmNPS" version="17.4.5" type="github">
  <diagram id="JyMxRdW0EgrM-4rQ0yle" name="Page-1">
    <mxGraphModel dx="1618" dy="815" grid="1" gridSize="10" guides="1" tooltips="1" connect="1" arrows="1" fold="1" page="1" pageScale="1" pageWidth="850" pageHeight="1100" math="0" shadow="0">
      <root>
        <mxCell id="0" />
        <mxCell id="1" parent="0" />
        <mxCell id="peudeOqzCSZGDJJxlbjg-1" value="" style="verticalLabelPosition=bottom;verticalAlign=top;html=1;shape=mxgraph.basic.patternFillRect;fillStyle=diag;step=5;fillStrokeWidth=0.2;fillStrokeColor=#dddddd;fillColor=#FF0000;" vertex="1" parent="1">
          <mxGeometry x="310" y="330" width="40" height="150" as="geometry" />
        </mxCell>
        <mxCell id="peudeOqzCSZGDJJxlbjg-2" value="" style="verticalLabelPosition=bottom;verticalAlign=top;html=1;shape=mxgraph.basic.patternFillRect;fillStyle=diagGrid;step=5;fillStrokeWidth=0.2;fillStrokeColor=#dddddd;fillColor=#FF0000;" vertex="1" parent="1">
          <mxGeometry x="450" y="330" width="40" height="150" as="geometry" />
        </mxCell>
        <mxCell id="peudeOqzCSZGDJJxlbjg-3" value="" style="verticalLabelPosition=bottom;verticalAlign=top;html=1;shape=mxgraph.basic.diag_stripe;dx=10;fillColor=#FF9933;" vertex="1" parent="1">
          <mxGeometry x="240" y="250" width="160" height="100" as="geometry" />
        </mxCell>
        <mxCell id="peudeOqzCSZGDJJxlbjg-7" value="" style="verticalLabelPosition=bottom;verticalAlign=top;html=1;shape=mxgraph.basic.diag_stripe;dx=10;flipV=1;direction=west;fillColor=#FF9933;" vertex="1" parent="1">
          <mxGeometry x="400" y="250" width="150" height="100" as="geometry" />
        </mxCell>
        <mxCell id="peudeOqzCSZGDJJxlbjg-8" value="&lt;font style=&quot;font-size: 28px;&quot;&gt;&lt;span style=&quot;font-size: 28px;&quot;&gt;&lt;font style=&quot;font-size: 28px;&quot;&gt;STAGING AND DESIGN&lt;/font&gt;&lt;/span&gt;&lt;/font&gt;" style="text;html=1;align=center;verticalAlign=middle;resizable=0;points=[];autosize=1;strokeColor=none;fillColor=none;fontStyle=1;fontSize=28;fontFamily=Verdana;" vertex="1" parent="1">
          <mxGeometry x="215" y="490" width="370" height="40" as="geometry" />
        </mxCell>
        <mxCell id="peudeOqzCSZGDJJxlbjg-14" value="" style="html=1;points=[];perimeter=orthogonalPerimeter;fontFamily=Courier New;fontSize=24;direction=south;fillColor=#0000CC;" vertex="1" parent="1">
          <mxGeometry x="360" y="370" width="80" height="10" as="geometry" />
        </mxCell>
        <mxCell id="peudeOqzCSZGDJJxlbjg-15" value="" style="html=1;points=[];perimeter=orthogonalPerimeter;fontFamily=Courier New;fontSize=24;fillColor=#0000CC;" vertex="1" parent="1">
          <mxGeometry x="430" y="380" width="10" height="20" as="geometry" />
        </mxCell>
        <mxCell id="peudeOqzCSZGDJJxlbjg-16" value="" style="html=1;points=[];perimeter=orthogonalPerimeter;fontFamily=Courier New;fontSize=24;direction=south;fillColor=#0000CC;" vertex="1" parent="1">
          <mxGeometry x="360" y="400" width="80" height="10" as="geometry" />
        </mxCell>
        <mxCell id="peudeOqzCSZGDJJxlbjg-17" value="" style="html=1;points=[];perimeter=orthogonalPerimeter;fontFamily=Courier New;fontSize=24;fillColor=#0000CC;" vertex="1" parent="1">
          <mxGeometry x="360" y="410" width="10" height="20" as="geometry" />
        </mxCell>
        <mxCell id="peudeOqzCSZGDJJxlbjg-18" value="" style="html=1;points=[];perimeter=orthogonalPerimeter;fontFamily=Courier New;fontSize=24;direction=south;fillColor=#0000CC;" vertex="1" parent="1">
          <mxGeometry x="360" y="430" width="80" height="10" as="geometry" />
        </mxCell>
      </root>
    </mxGraphModel>
  </diagram>
</mxfile>
